<?xml version="1.0" encoding="UTF-8"?>
<svg id="_Слой_1" data-name="Слой 1" xmlns="http://www.w3.org/2000/svg" viewBox="0 0 488.07 777.08">
  <defs>
    <style>
      .cls-1, .cls-2 {
        stroke-width: 0px;
      }

      .cls-2 {
        fill: #ff8734;
      }
    </style>
  </defs>
  <path class="cls-1" d="m0,587.67c4.88-61.4,16.58-120.55,32.77-178.63,24.62-88.34,60.76-171.99,109.19-250.05,23.67-38.15,50.05-74.35,83.32-104.83,13.41-12.29,27.45-24.35,42.8-33.97,28.72-18,58.55-29.09,92.66-10.84,15.89,8.5,34.35,12.08,51.35,18.66,42.68,16.51,64.08,49.94,70.93,93.36,10.11,64.01,4.06,127.22-9.45,190.38-22.75,106.35-61.39,206.25-117.71,299.16-31.37,51.76-66.64,100.63-115.95,137.32-27.92,20.77-58.27,36.24-94.09,25.15-28.67-8.88-57.55-18.68-84.09-32.41-24.06-12.45-40.23-34.85-45.96-62.09-6.34-30.18-10.6-60.79-15.77-91.21ZM456.81,177.71c-1.82-14.52-4.31-40.85-8.64-66.87-3.09-18.57-13.32-34-28.43-45.35-3.57-2.68-9.59-2.11-14.48-3.03.28,4.19.15,8.45.91,12.55,3.29,17.74,8.75,35.31,9.95,53.18,4.75,70.9-6.87,139.78-26.02,208-28.83,102.7-70.55,199.31-131.38,287.09-28.12,40.59-59.08,78.99-102.3,105.23-3.63,2.2-6.35,5.9-9.5,8.9,4.41,2.52,8.8,7.15,13.25,7.2,20.47.24,39.24-5.34,56.37-17.44,48.11-33.98,81.97-80.28,111.7-129.74,41.94-69.78,73.33-144.15,96.75-222.34,18.21-60.78,28.82-122.25,31.81-197.39ZM37.09,596.05c-.47,23.07-.96,55.82,12.57,87.11,13.07,30.24,34.98,41.76,65.75,29.4,16.56-6.65,32.46-16.75,46.26-28.17,37.65-31.17,66.35-70.17,91.58-111.75,45.23-74.54,79.09-153.96,102.74-237.88,18.43-65.39,30.27-131.67,27.05-199.82-1.2-25.42-3.98-50.91-16.37-74.26-13.89-26.2-37.09-35.75-64.09-24.01-11.59,5.04-22.7,11.79-32.93,19.27-45.92,33.58-77.52,79.55-106.61,127.18-38.21,62.56-67.61,129.22-89.23,199.33-20.5,66.46-37.74,133.44-36.71,213.6Z"/>
  <path class="cls-2" d="m456.81,177.71c-2.98,75.13-13.59,136.61-31.81,197.39-23.43,78.19-54.81,152.56-96.75,222.34-29.73,49.46-63.59,95.75-111.7,129.74-17.13,12.1-35.9,17.68-56.37,17.44-4.44-.05-8.83-4.68-13.25-7.2,3.14-3,5.87-6.69,9.5-8.9,43.22-26.24,74.17-64.65,102.3-105.23,60.83-87.78,102.55-184.39,131.38-287.09,19.15-68.22,30.77-137.1,26.02-208-1.2-17.86-6.66-35.43-9.95-53.18-.76-4.1-.63-8.36-.91-12.55,4.89.92,10.91.35,14.48,3.03,15.11,11.36,25.34,26.78,28.43,45.35,4.34,26.02,6.83,52.35,8.64,66.87Z"/>
  <path class="cls-2" d="m37.09,596.05c-1.03-80.16,16.22-147.14,36.71-213.6,21.62-70.11,51.02-136.78,89.23-199.33,29.09-47.63,60.69-93.6,106.61-127.18,10.23-7.48,21.34-14.23,32.93-19.27,27-11.73,50.2-2.19,64.09,24.01,12.38,23.35,15.16,48.83,16.37,74.26,3.23,68.15-8.61,134.43-27.05,199.82-23.65,83.92-57.51,163.34-102.74,237.88-25.23,41.58-53.93,80.58-91.58,111.75-13.8,11.43-29.69,21.52-46.26,28.17-30.77,12.36-52.68.84-65.75-29.4-13.53-31.3-13.04-64.04-12.57-87.11Zm18.08-7.87c0,14.61-1.69,29.48.45,43.77,2.4,15.99,6.42,32.3,13.09,46.95,10.02,22.02,23.23,26.46,44.11,15.27,15.09-8.09,29.43-18.33,42.33-29.64,45.96-40.31,79.53-90.34,107.45-144.06,53.89-103.68,91.24-212.69,103.09-329.66,3.54-34.94,1.41-69.4-6.77-103.36-8.78-36.48-33.85-45.66-65.87-24.97-4.59,2.97-9.04,6.17-13.46,9.39-33.79,24.58-58.92,57.2-81.8,91.33-43.9,65.48-77.58,135.99-102.19,211.08-22.84,69.69-41.85,139.82-40.42,213.92Z"/>
  <path class="cls-1" d="m55.16,588.18c-1.43-74.1,17.58-144.23,40.42-213.92,24.61-75.09,58.29-145.6,102.19-211.08,22.88-34.12,48.01-66.74,81.8-91.33,4.42-3.22,8.87-6.42,13.46-9.39,32.02-20.68,57.09-11.51,65.87,24.97,8.18,33.96,10.31,68.41,6.77,103.36-11.85,116.98-49.2,225.98-103.09,329.66-27.92,53.72-61.5,103.74-107.45,144.06-12.9,11.31-27.23,21.56-42.33,29.64-20.88,11.19-34.09,6.74-44.11-15.27-6.67-14.65-10.68-30.96-13.09-46.95-2.15-14.29-.45-29.16-.45-43.77Zm32.57,6.38c.66,8.87.8,22.67,2.95,36.15,1.78,11.14,5.92,21.9,9.02,32.83,9.86-6.04,20.65-10.95,29.41-18.3,48.64-40.78,81.13-93.86,109.4-149.42,31.08-61.08,55.88-124.68,72.32-191.56,13.13-53.43,24.03-106.98,23.04-162.24-.23-12.66-2.19-25.54-5.25-37.85-4.99-20.09-11.54-21.73-27.99-8.15-40.01,33.02-70.59,73.89-96.86,118.14-37.94,63.89-65.94,131.89-87.34,203.15-16.97,56.52-26.13,113.75-28.7,177.26Z"/>
  <path class="cls-2" d="m87.73,594.55c2.57-63.51,11.73-120.73,28.7-177.26,21.4-71.26,49.4-139.26,87.34-203.15,26.27-44.25,56.85-85.12,96.86-118.14,16.45-13.58,23-11.94,27.99,8.15,3.06,12.31,5.02,25.19,5.25,37.85.99,55.26-9.91,108.8-23.04,162.24-16.43,66.88-41.24,130.49-72.32,191.56-28.27,55.56-60.76,108.64-109.4,149.42-8.76,7.34-19.56,12.26-29.41,18.3-3.1-10.93-7.24-21.69-9.02-32.83-2.15-13.48-2.29-27.28-2.95-36.15Z"/>
</svg>