<?xml version="1.0" encoding="utf-8"?>
<!-- Generator: Adobe Illustrator 28.0.0, SVG Export Plug-In . SVG Version: 6.00 Build 0)  -->
<svg version="1.1" id="Слой_1" xmlns="http://www.w3.org/2000/svg" xmlns:xlink="http://www.w3.org/1999/xlink" x="0px" y="0px"
	 viewBox="0 0 1000 1000" style="enable-background:new 0 0 1000 1000;" xml:space="preserve">
<g>
	<g>
		<path d="M329.49,573.95c0-55.68-0.1-111.37,0.03-167.05c0.09-37.85,23.61-67.75,59.46-75.6c6.01-1.32,12.32-1.77,18.49-1.77
			c111.13-0.1,222.26-0.12,333.39-0.05c45.48,0.03,77.92,32.59,77.94,78.1c0.05,111.14,0.05,222.29,0,333.43
			c-0.02,45.05-32.71,77.77-77.62,77.78c-111.35,0.03-222.7,0.03-334.06,0c-44.61-0.01-77.43-32.5-77.59-77.12
			C329.35,685.76,329.49,629.86,329.49,573.95z M379.62,574.14c0,55.22-0.01,110.45,0.01,165.67c0.01,19.68,9.2,28.89,28.89,28.89
			c110.43,0.02,220.87,0.02,331.3,0c19.64,0,28.87-9.26,28.87-28.93c0.01-110.45,0.01-220.89,0-331.34
			c0-19.67-9.21-28.87-28.9-28.87c-110.43-0.01-220.87-0.01-331.3,0c-19.7,0-28.85,9.19-28.86,28.91
			C379.61,463.69,379.62,518.92,379.62,574.14z"/>
		<path d="M668.22,278.14c-16.09,0-31.98,0-49.04,0c0-6.55,0.02-13.09,0-19.62c-0.05-18.87-9.94-28.88-28.61-28.89
			c-110.67-0.01-221.34-0.01-332,0c-18.88,0-28.88,9.87-28.88,28.6c-0.02,110.68-0.02,221.36,0,332.04
			c0,18.84,9.95,28.82,28.63,28.87c6.85,0.02,13.7,0,21.02,0c0,16.57,0,32.63,0,48.69c-49.02,7.63-89.48-14.3-98.46-62.41
			c-0.73-3.89-0.84-7.94-0.84-11.92c-0.04-112.68-0.17-225.35,0.04-338.03c0.07-38.51,25.65-68.23,63.44-74.69
			c4.77-0.82,9.71-0.85,14.58-0.86c110.89-0.04,221.78,0.36,332.67-0.24c39.97-0.22,72.41,27.43,77.26,64.51
			C669.43,255.07,668.22,266.29,668.22,278.14z"/>
	</g>
</g>
</svg>
