<!-- Generated by IcoMoon.io -->
<svg version="1.1" xmlns="http://www.w3.org/2000/svg" width="1024" height="1024" viewBox="0 0 1024 1024">
<g id="icomoon-ignore">
</g>
<path fill="#000" d="M774.406 190.421c-80.91 6.431-158.855 21.848-235.39 43.183-116.41 32.443-226.64 80.067-329.504 143.886-50.272 31.191-97.975 65.954-138.14 109.795-16.195 17.671-32.087 36.172-44.764 56.4-23.72 37.846-38.333 77.154-14.284 122.103 11.201 20.939 15.918 45.265 24.589 67.667 21.756 56.242 65.809 84.442 123.025 93.468 84.349 13.322 167.645 5.35 250.874-12.453 140.143-29.979 271.787-80.897 394.219-155.113 68.207-41.338 132.606-87.815 180.954-152.794 27.37-36.792 47.755-76.786 33.142-123.987-11.702-37.78-24.616-75.837-42.708-110.81-16.406-31.705-45.924-53.013-81.819-60.564-39.77-8.355-80.106-13.968-120.192-20.781zM234.18 792.384c-19.134-2.398-53.83-5.68-88.118-11.385-24.471-4.072-44.804-17.552-59.76-37.464-3.532-4.704-2.78-12.637-3.993-19.081 5.521 0.369 11.135 0.198 16.538 1.199 23.377 4.335 46.53 11.53 70.078 13.112 93.429 6.259 184.196-9.053 274.093-34.288 135.333-37.991 262.641-92.968 378.314-173.126 53.488-37.055 104.089-77.853 138.667-134.806 2.899-4.783 7.775-8.368 11.728-12.519 3.321 5.811 9.422 11.596 9.488 17.46 0.316 26.974-7.037 51.709-22.982 74.282-44.777 63.397-105.789 108.016-170.965 147.193-91.953 55.267-189.954 96.631-292.989 127.493-80.093 23.996-161.095 37.978-260.111 41.918zM785.449 239.296c30.401-0.619 73.557-1.265 114.79 16.564 39.849 17.223 55.029 46.095 38.742 86.642-8.763 21.822-22.072 42.774-37.121 60.959-41.074 49.613-92.467 87.433-147.259 120.68-98.225 59.602-202.881 104.221-313.467 135.386-86.168 24.286-173.509 39.888-263.314 35.645-33.497-1.581-67.087-5.245-97.856-21.572-34.525-18.304-47.11-48.875-31.639-84.455 6.641-15.273 15.536-29.913 25.393-43.394 44.25-60.511 104.827-102.152 167.592-140.486 82.439-50.351 170.28-89.093 262.668-117.583 87.578-27.014 175.841-49.732 281.472-48.375z"></path>
<path fill="#ff8734" d="M234.18 792.384c99.003-3.927 180.018-17.908 260.111-41.918 103.035-30.875 201.036-72.226 292.989-127.493 65.176-39.177 126.175-83.796 170.965-147.193 15.945-22.573 23.298-47.307 22.982-74.282-0.066-5.851-6.167-11.636-9.488-17.46-3.953 4.138-8.816 7.735-11.728 12.519-34.578 56.953-85.193 97.738-138.667 134.806-115.672 80.159-242.981 135.136-378.314 173.126-89.897 25.235-180.664 40.547-274.093 34.288-23.535-1.581-46.688-8.776-70.078-13.112-5.403-1.001-11.016-0.83-16.538-1.199 1.212 6.444 0.461 14.377 3.993 19.081 14.97 19.911 35.289 33.392 59.76 37.464 34.288 5.719 68.984 9 88.118 11.385z"></path>
<path fill="#ff8734" d="M785.449 239.296c-105.631-1.357-193.894 21.374-281.472 48.375-92.388 28.49-180.242 67.232-262.668 117.583-62.765 38.333-123.342 79.974-167.592 140.486-9.857 13.481-18.752 28.121-25.393 43.394-15.457 35.579-2.886 66.151 31.639 84.455 30.77 16.314 64.346 19.977 97.856 21.572 89.805 4.256 177.146-11.346 263.314-35.645 110.586-31.165 215.242-75.784 313.467-135.386 54.792-33.247 106.185-71.066 147.259-120.68 15.062-18.185 28.358-39.124 37.121-60.959 16.287-40.547 1.107-69.419-38.742-86.642-41.246-17.829-84.389-17.184-114.79-16.564zM775.078 263.121c19.252 0 38.847-2.227 57.678 0.593 21.071 3.163 42.563 8.46 61.869 17.249 29.017 13.204 34.868 30.611 20.122 58.126-10.661 19.885-24.154 38.781-39.058 55.781-53.119 60.564-119.046 104.801-189.836 141.593-136.625 71.014-280.273 120.232-434.411 135.847-46.042 4.665-91.452 1.858-136.203-8.921-48.072-11.57-60.169-44.606-32.904-86.8 3.914-6.048 8.131-11.912 12.374-17.737 32.39-44.527 75.376-77.642 120.35-107.792 86.287-57.849 179.201-102.231 278.151-134.661 91.834-30.097 184.248-55.148 281.894-53.264z"></path>
<path fill="#000" d="M775.078 263.108c-97.646-1.884-190.060 23.166-281.894 53.264-98.95 32.43-191.865 76.812-278.151 134.661-44.962 30.15-87.947 63.265-120.35 107.792-4.243 5.824-8.46 11.688-12.374 17.737-27.251 42.194-15.167 75.231 32.904 86.8 44.751 10.779 90.148 13.586 136.203 8.921 154.151-15.615 297.786-64.833 434.411-135.847 70.79-36.792 136.704-81.042 189.836-141.593 14.904-16.999 28.411-35.882 39.058-55.781 14.746-27.515 8.882-44.922-20.122-58.126-19.305-8.789-40.798-14.074-61.869-17.249-18.831-2.833-38.426-0.593-57.678-0.593zM783.486 306.028c11.688 0.87 29.873 1.054 47.637 3.887 14.68 2.346 28.859 7.801 43.262 11.886-7.959 12.993-14.429 27.212-24.115 38.755-53.738 64.096-123.684 106.909-196.899 144.162-80.488 40.956-164.298 73.636-252.429 95.3-70.408 17.302-140.973 31.666-213.792 30.361-16.683-0.303-33.655-2.886-49.877-6.918-26.474-6.576-28.635-15.207-10.74-36.884 43.512-52.723 97.369-93.020 155.679-127.638 84.191-49.996 173.799-86.893 267.702-115.093 74.479-22.362 149.894-34.433 233.585-37.82z"></path>
<path fill="#ff8734" d="M783.472 306.028c-83.691 3.387-159.092 15.457-233.585 37.82-93.903 28.2-183.51 65.097-267.702 115.093-58.311 34.617-112.167 74.914-155.679 127.638-17.895 21.677-15.734 30.308 10.74 36.884 16.222 4.032 33.194 6.615 49.877 6.918 72.819 1.305 143.372-13.059 213.792-30.361 88.131-21.651 171.954-54.344 252.429-95.3 73.214-37.253 143.161-80.067 196.899-144.162 9.672-11.544 16.156-25.775 24.115-38.755-14.403-4.085-28.582-9.541-43.262-11.886-17.763-2.833-35.948-3.018-47.637-3.887z"></path>
</svg>
