<?xml version="1.0" encoding="utf-8"?>
<!-- Generator: Adobe Illustrator 28.0.0, SVG Export Plug-In . SVG Version: 6.00 Build 0)  -->
<svg version="1.1" id="Слой_1" xmlns="http://www.w3.org/2000/svg" xmlns:xlink="http://www.w3.org/1999/xlink" x="0px" y="0px"
	 viewBox="0 0 1000 1000" style="enable-background:new 0 0 1000 1000;" xml:space="preserve">
<g>
	<g>
		<path d="M959.33,145.04c-5.39,23.96-11.01,47.88-16.13,71.9c-37.05,173.55-74,347.11-110.98,520.67
			c-10.57,49.63-21.26,99.24-31.59,148.92c-1.42,6.83-3.7,11.74-11.1,13.05c-2.03,0.36-4.16,1.08-5.88,2.19
			c-19.49,12.54-34.65,6.71-52.38-6.88c-61.76-47.34-125.06-92.67-187.78-138.76c-1.68-1.24-3.45-2.36-7.69-5.78
			c-1.91,3.08-3.34,6.62-5.8,9.16c-29.93,30.86-59.88,61.71-90.23,92.15c-3.32,3.33-9.1,5.68-13.84,5.86
			c-18.29,0.67-36.62,0.27-55.78,0.27c-6.86-21.86-13.68-43.52-20.44-65.2c-19.3-61.9-38.48-123.83-58.07-185.64
			c-1.12-3.52-4.88-7.71-8.29-8.78c-80.74-25.32-161.59-50.26-242.44-75.22c-1.68-0.52-3.52-0.49-5.29-0.71c0-17.45,0-34.89,0-52.34
			c1.06-0.56,2.07-1.22,3.18-1.66c63.43-25.67,126.86-51.31,190.29-76.97c228.4-92.41,456.82-184.79,685.14-277.41
			c6.49-2.63,10.56-2.15,15.79,2.49c9.32,8.27,19.5,15.57,29.32,23.28C959.33,141.43,959.33,143.23,959.33,145.04z M344.23,592.92
			c21.87,70.18,43.53,139.66,64.67,207.49c27.58-27.27,55.17-54.55,83.01-82.08c-18.48-13.61-37.52-27.63-57.23-42.14
			c10.89-14.81,21.29-28.95,32.05-43.58c96.12,70.61,191.31,140.53,287.48,211.17c47.32-221.98,94.21-441.97,141.51-663.87
			c-257.98,104.4-513.59,207.84-771.31,312.14c61.13,18.92,119.63,36.92,178.03,55.25c6.37,2,11.12,1.01,16.68-2.32
			c111.31-66.68,222.73-133.19,334.12-199.72c14.35-8.57,28.73-17.11,43.58-25.95c9.43,15.89,18.38,30.98,27.59,46.52
			C597.25,441.78,471.19,517.08,344.23,592.92z"/>
	</g>
</g>
</svg>
